<svg version="1.1" preserveAspectRatio="none" xmlns="http://www.w3.org/2000/svg" width="500" height="500" viewBox="0 0 500 500"><rect width="100%" height="100%" fill="#FC924B" fill-opacity="1"/><svg viewBox="-51.976 -108.2774 503.952 512" width="327.76565625" height="333" x="86.1172px" y="83.5px" xmlns="http://www.w3.org/2000/svg" xmlns:xlink="http://www.w3.org/1999/xlink" preserveAspectRatio="none"><defs></defs><style>.aLgOaV3zRcolors-3 {fill:#FF8484;fill-opacity:1;}.aLgOaV3zRcolors-4 {fill:#E74949;fill-opacity:1;}.aLgOaV3zRcolors-5 {fill:#FDB3B3;fill-opacity:1;}.aLgOaV3zRcolors-6 {fill:#D22626;fill-opacity:1;}.aLgOaV3zRcolors-7 {fill:#393939;fill-opacity:1;}.companyName {fill:#393939;fill-opacity:1;}.icon1 {fill:#FFFFFF;fill-opacity:1;}.icon2 {fill:#FF3737;fill-opacity:1;}.icon3 {fill:#B15400;fill-opacity:1;}.icon3-str {stroke:#B15400;stroke-opacity:1;}.text {fill:#393939;fill-opacity:1;}</style><g opacity="1" transform="rotate(0 75.3706 -108.2774)">
<svg width="249.2588" height="400" x="75.3706" y="-108.2774" version="1.1" preserveAspectRatio="none" viewBox="50.23431396484375 19.891687393188477 99.78372192382812 160.12872314453125">
  <g transform="matrix(1 0 0 1 0 0)"><g><path d="M138 170.4c-.1.1-.2-.1 0 0z" data-color="1" class="icon1"></path><path d="M138 171.2c0-.1.2-.1.1 0 0 .1 0 .1-.1 0z" data-color="1" class="icon1"></path><path d="M138 171.4c-.1.1 0-.2 0 0z" data-color="1" class="icon1"></path><path d="M137.9 171.6c0 .2-.1-.2 0 0z" data-color="1" class="icon1"></path><path d="M101.8 42.3s.7-5.3 7.3-5.3c0 0 6.8 2.1 9.4 2.6l1.4-3.6c1.6 1.2 4.2 3.6 5.7 6.2-.2 0 6.3 4.5 3.9 10.9-.8-.2 7.8 9.5 3.3 18.2 0 .2 7.4 13.5-1.1 17.4.3-.2-2.6 7-6.6 2.5.2-.2-4.7-5.1-2.4-10.4-1.2.4-6.3-15.9.6-17.1-.6-.3 1.4-8.1-5.5-11.4.4.4-4.8 3.5-8.2-.8-.3-.2-7.8-9.2-7.8-9.2z" data-color="2" class="icon2"></path></g></g>
</svg>
</svg></svg>